{
  "accessors": [
    {
      "bufferView": 2,
      "componentType": 5126,
      "count": 23070,
      "max": [
        0.18972699344158173,
        -1.3169339895248413,
        -0.663798987865448
      ],
      "min": [
        -0.33193498849868774,
        -3.1433401107788086,
        -1.2638219594955444
      ],
      "type": "VEC3"
    },
    {
      "bufferView": 2,
      "byteOffset": 276840,
      "componentType": 5126,
      "count": 23070,
      "max": [
        0.9999987483024597,
        0.9999960064888,
        0.9999793767929077
      ],
      "min": [
        -0.9999985098838806,
        -0.9995955228805542,
        -0.9999915957450867
      ],
      "type": "VEC3"
    },
    {
      "bufferView": 3,
      "componentType": 5126,
      "count": 23070,
      "max": [
        0.999949038028717,
        0.9997152090072632,
        0.9999702572822571,
        1.0
      ],
      "min": [
        -0.9998810887336731,
        -0.9999987483024597,
        -0.9999707341194153,
        1.0
      ],
      "type": "VEC4"
    },
    {
      "bufferView": 1,
      "componentType": 5126,
      "count": 23070,
      "max": [
        0.9868379831314087,
        0.9990019798278809
      ],
      "min": [
        0.0007089999853633344,
        0.0007220000261440873
      ],
      "type": "VEC2"
    },
    {
      "bufferView": 0,
      "componentType": 5125,
      "count": 118776,
      "type": "SCALAR"
    },
    {
      "bufferView": 2,
      "byteOffset": 553680,
      "componentType": 5126,
      "count": 198,
      "max": [
        0.04146299883723259,
        1.3890249729156494,
        1.2723150253295898
      ],
      "min": [
        -0.04146299883723259,
        1.2231709957122803,
        1.2308520078659058
      ],
      "type": "VEC3"
    },
    {
      "bufferView": 2,
      "byteOffset": 556056,
      "componentType": 5126,
      "count": 198,
      "max": [
        1.0,
        1.0,
        1.0
      ],
      "min": [
        -1.0,
        -1.0,
        -1.0
      ],
      "type": "VEC3"
    },
    {
      "bufferView": 3,
      "byteOffset": 369120,
      "componentType": 5126,
      "count": 198,
      "max": [
        1.0,
        1.0,
        1.0,
        1.0
      ],
      "min": [
        -1.0,
        -1.0,
        -0.0064986106008291245,
        1.0
      ],
      "type": "VEC4"
    },
    {
      "bufferView": 1,
      "byteOffset": 184560,
      "componentType": 5126,
      "count": 198,
      "max": [
        0.9951440095901489,
        0.9783949851989746
      ],
      "min": [
        0.004850999917834997,
        0.004852999933063984
      ],
      "type": "VEC2"
    },
    {
      "bufferView": 0,
      "byteOffset": 475104,
      "componentType": 5125,
      "count": 768,
      "type": "SCALAR"
    },
    {
      "bufferView": 2,
      "byteOffset": 558432,
      "componentType": 5126,
      "count": 198,
      "max": [
        0.04146299883723259,
        1.1817079782485962,
        1.2723150253295898
      ],
      "min": [
        -0.04146299883723259,
        1.015854001045227,
        1.2308520078659058
      ],
      "type": "VEC3"
    },
    {
      "bufferView": 2,
      "byteOffset": 560808,
      "componentType": 5126,
      "count": 198,
      "max": [
        1.0,
        1.0,
        1.0
      ],
      "min": [
        -1.0,
        -1.0,
        -1.0
      ],
      "type": "VEC3"
    },
    {
      "bufferView": 3,
      "byteOffset": 372288,
      "componentType": 5126,
      "count": 198,
      "max": [
        1.0,
        1.0,
        1.0,
        1.0
      ],
      "min": [
        -1.0,
        -1.0,
        -0.006498617585748434,
        1.0
      ],
      "type": "VEC4"
    },
    {
      "bufferView": 1,
      "byteOffset": 186144,
      "componentType": 5126,
      "count": 198,
      "max": [
        0.9951440095901489,
        0.9783949851989746
      ],
      "min": [
        0.004852000158280134,
        0.004854000173509121
      ],
      "type": "VEC2"
    },
    {
      "bufferView": 0,
      "byteOffset": 478176,
      "componentType": 5125,
      "count": 768,
      "type": "SCALAR"
    },
    {
      "bufferView": 2,
      "byteOffset": 563184,
      "componentType": 5126,
      "count": 7495,
      "max": [
        0.1036589965224266,
        1.5485090017318726,
        1.2515840530395508
      ],
      "min": [
        -0.10884200036525726,
        -1.5465339422225952,
        -1.2515840530395508
      ],
      "type": "VEC3"
    },
    {
      "bufferView": 2,
      "byteOffset": 653124,
      "componentType": 5126,
      "count": 7495,
      "max": [
        1.0,
        1.0,
        1.0
      ],
      "min": [
        -1.0,
        -1.0,
        -1.0
      ],
      "type": "VEC3"
    },
    {
      "bufferView": 3,
      "byteOffset": 375456,
      "componentType": 5126,
      "count": 7495,
      "max": [
        1.0,
        1.0,
        1.0,
        1.0
      ],
      "min": [
        -1.0,
        -1.0,
        -1.0,
        -1.0
      ],
      "type": "VEC4"
    },
    {
      "bufferView": 1,
      "byteOffset": 187728,
      "componentType": 5126,
      "count": 7495,
      "max": [
        0.9951429963111877,
        0.7914720177650452
      ],
      "min": [
        0.004856999963521957,
        0.004854000173509121
      ],
      "type": "VEC2"
    },
    {
      "bufferView": 0,
      "byteOffset": 481248,
      "componentType": 5125,
      "count": 32586,
      "type": "SCALAR"
    }
  ],
  "asset": {
    "extras": {
      "author": "BYVIKTOR (https://sketchfab.com/BYVIKTOR)",
      "license": "CC-BY-4.0 (http://creativecommons.org/licenses/by/4.0/)",
      "source": "https://sketchfab.com/3d-models/memory-bank-e266c7c0edd04a5a8e2e11d7846091ba",
      "title": "Memory bank💾"
    },
    "generator": "Sketchfab-16.16.0",
    "version": "2.0"
  },
  "bufferViews": [
    {
      "buffer": 0,
      "byteLength": 611592,
      "name": "floatBufferViews",
      "target": 34963
    },
    {
      "buffer": 0,
      "byteLength": 247688,
      "byteOffset": 611592,
      "byteStride": 8,
      "name": "floatBufferViews",
      "target": 34962
    },
    {
      "buffer": 0,
      "byteLength": 743064,
      "byteOffset": 859280,
      "byteStride": 12,
      "name": "floatBufferViews",
      "target": 34962
    },
    {
      "buffer": 0,
      "byteLength": 495376,
      "byteOffset": 1602344,
      "byteStride": 16,
      "name": "floatBufferViews",
      "target": 34962
    }
  ],
  "buffers": [
    {
      "byteLength": 2097720,
      "uri": "scene.bin"
    }
  ],
  "images": [
    {
      "uri": "textures/Plastic___Matte__Red__1001_baseColor.jpeg"
    },
    {
      "uri": "textures/Plastic___Matte__Red__1001_metallicRoughness.png"
    },
    {
      "uri": "textures/Plastic___Matte__Red__1001_emissive.jpeg"
    },
    {
      "uri": "textures/Plastic___Matte__Red__1001_normal.png"
    },
    {
      "uri": "textures/Plastic___Glossy__Black__1001_baseColor.jpeg"
    },
    {
      "uri": "textures/Plastic___Glossy__Black__1001_metallicRoughness.png"
    },
    {
      "uri": "textures/Plastic___Glossy__Black__1001_emissive.jpeg"
    },
    {
      "uri": "textures/Plastic___Glossy__Black__1001_normal.png"
    },
    {
      "uri": "textures/Plastic___Glossy__Black__1_1001_baseColor.jpeg"
    },
    {
      "uri": "textures/Plastic___Glossy__Black__1_1001_metallicRoughness.png"
    },
    {
      "uri": "textures/Plastic___Glossy__Black__1_1001_emissive.jpeg"
    },
    {
      "uri": "textures/Plastic___Glossy__Black__1_1001_normal.png"
    },
    {
      "uri": "textures/Aluminum___Polished_1001_baseColor.jpeg"
    },
    {
      "uri": "textures/Aluminum___Polished_1001_metallicRoughness.png"
    },
    {
      "uri": "textures/Aluminum___Polished_1001_emissive.jpeg"
    },
    {
      "uri": "textures/Aluminum___Polished_1001_normal.png"
    }
  ],
  "materials": [
    {
      "doubleSided": true,
      "emissiveFactor": [
        1.0,
        1.0,
        1.0
      ],
      "emissiveTexture": {
        "index": 2
      },
      "name": "Plastic___Matte__Red__1001",
      "normalTexture": {
        "index": 3
      },
      "occlusionTexture": {
        "index": 1
      },
      "pbrMetallicRoughness": {
        "baseColorTexture": {
          "index": 0
        },
        "metallicRoughnessTexture": {
          "index": 1
        }
      }
    },
    {
      "doubleSided": true,
      "emissiveFactor": [
        1.0,
        1.0,
        1.0
      ],
      "emissiveTexture": {
        "index": 6
      },
      "name": "Plastic___Glossy__Black__1001",
      "normalTexture": {
        "index": 7
      },
      "occlusionTexture": {
        "index": 5
      },
      "pbrMetallicRoughness": {
        "baseColorTexture": {
          "index": 4
        },
        "metallicRoughnessTexture": {
          "index": 5
        }
      }
    },
    {
      "doubleSided": true,
      "emissiveFactor": [
        1.0,
        1.0,
        1.0
      ],
      "emissiveTexture": {
        "index": 10
      },
      "name": "Plastic___Glossy__Black__1_1001",
      "normalTexture": {
        "index": 11
      },
      "occlusionTexture": {
        "index": 9
      },
      "pbrMetallicRoughness": {
        "baseColorTexture": {
          "index": 8
        },
        "metallicRoughnessTexture": {
          "index": 9
        }
      }
    },
    {
      "doubleSided": true,
      "emissiveFactor": [
        1.0,
        1.0,
        1.0
      ],
      "emissiveTexture": {
        "index": 14
      },
      "name": "Aluminum___Polished_1001",
      "normalTexture": {
        "index": 15
      },
      "occlusionTexture": {
        "index": 13
      },
      "pbrMetallicRoughness": {
        "baseColorTexture": {
          "index": 12
        },
        "metallicRoughnessTexture": {
          "index": 13
        }
      }
    }
  ],
  "meshes": [
    {
      "name": "defaultMaterial",
      "primitives": [
        {
          "attributes": {
            "NORMAL": 1,
            "POSITION": 0,
            "TANGENT": 2,
            "TEXCOORD_0": 3
          },
          "indices": 4,
          "material": 3,
          "mode": 4
        }
      ]
    },
    {
      "name": "defaultMaterial",
      "primitives": [
        {
          "attributes": {
            "NORMAL": 6,
            "POSITION": 5,
            "TANGENT": 7,
            "TEXCOORD_0": 8
          },
          "indices": 9,
          "material": 2,
          "mode": 4
        }
      ]
    },
    {
      "name": "defaultMaterial",
      "primitives": [
        {
          "attributes": {
            "NORMAL": 11,
            "POSITION": 10,
            "TANGENT": 12,
            "TEXCOORD_0": 13
          },
          "indices": 14,
          "material": 1,
          "mode": 4
        }
      ]
    },
    {
      "name": "defaultMaterial",
      "primitives": [
        {
          "attributes": {
            "NORMAL": 16,
            "POSITION": 15,
            "TANGENT": 17,
            "TEXCOORD_0": 18
          },
          "indices": 19,
          "material": 0,
          "mode": 4
        }
      ]
    }
  ],
  "nodes": [
    {
      "children": [
        1
      ],
      "matrix": [
        1.0,
        0.0,
        0.0,
        0.0,
        0.0,
        2.220446049250313e-16,
        -1.0,
        0.0,
        0.0,
        1.0,
        2.220446049250313e-16,
        0.0,
        0.0,
        0.0,
        0.0,
        1.0
      ],
      "name": "Sketchfab_model"
    },
    {
      "children": [
        2,
        4,
        6,
        8
      ],
      "matrix": [
        1.0,
        0.0,
        0.0,
        0.0,
        0.0,
        -4.371139006309477e-08,
        0.999999999999999,
        0.0,
        0.0,
        -0.999999999999999,
        -4.371139006309477e-08,
        0.0,
        0.0,
        0.0,
        0.0,
        1.0
      ],
      "name": "Collada visual scene group"
    },
    {
      "children": [
        3
      ],
      "name": "Body8_Body8"
    },
    {
      "mesh": 0,
      "name": "defaultMaterial"
    },
    {
      "children": [
        5
      ],
      "name": "Body5_Body5"
    },
    {
      "mesh": 1,
      "name": "defaultMaterial"
    },
    {
      "children": [
        7
      ],
      "name": "Body4_Body4"
    },
    {
      "mesh": 2,
      "name": "defaultMaterial"
    },
    {
      "children": [
        9
      ],
      "name": "Body1_Body1"
    },
    {
      "mesh": 3,
      "name": "defaultMaterial"
    }
  ],
  "samplers": [
    {
      "magFilter": 9729,
      "minFilter": 9987,
      "wrapS": 10497,
      "wrapT": 10497
    }
  ],
  "scene": 0,
  "scenes": [
    {
      "name": "Sketchfab_Scene",
      "nodes": [
        0
      ]
    }
  ],
  "textures": [
    {
      "sampler": 0,
      "source": 0
    },
    {
      "sampler": 0,
      "source": 1
    },
    {
      "sampler": 0,
      "source": 2
    },
    {
      "sampler": 0,
      "source": 3
    },
    {
      "sampler": 0,
      "source": 4
    },
    {
      "sampler": 0,
      "source": 5
    },
    {
      "sampler": 0,
      "source": 6
    },
    {
      "sampler": 0,
      "source": 7
    },
    {
      "sampler": 0,
      "source": 8
    },
    {
      "sampler": 0,
      "source": 9
    },
    {
      "sampler": 0,
      "source": 10
    },
    {
      "sampler": 0,
      "source": 11
    },
    {
      "sampler": 0,
      "source": 12
    },
    {
      "sampler": 0,
      "source": 13
    },
    {
      "sampler": 0,
      "source": 14
    },
    {
      "sampler": 0,
      "source": 15
    }
  ]
}
